<svg xmlns="http://www.w3.org/2000/svg" enable-background="new 0 0 1500 1500" viewBox="0 0 1500 1500"><ellipse cx="758.13" cy="1206.26" fill="#e8cad3" rx="569.93" ry="60.96"/><path fill="#d79283" d="M855.84,577.89c-0.02,0.17-0.04,0.34-0.07,0.5c-0.02,0.15-0.04,0.3-0.07,0.45      c-0.02,0.17-0.06,0.34-0.11,0.5c-0.2,0.87-0.52,1.77-0.93,2.62c-0.06,0.15-0.13,0.3-0.22,0.47c-0.22,0.45-0.47,0.89-0.74,1.34      c0,0.04-0.02,0.06-0.04,0.07c-0.5,0.84-1.06,1.64-1.66,2.42c-1.68,2.18-3.57,4.06-5.1,5.44c-0.89,0.82-1.84,1.56-2.79,2.33      c-3,5.08-5.88,9.31-8.66,12.73c-7.56,9.38-14.32,13.05-20.2,13.18c-10.24,0.21-17.89-10.26-22.73-19.84      c-4.41-8.71-6.94-18.26-7.35-28.02c-0.02-0.26-0.04-0.5-0.04-0.76c-0.54-16.49,5.92-6.14,5.92-6.14      c31.65,11.17,40.95-5.58,40.95-5.58c7.45,13.03,18.62,9.31,18.62,9.31C854.84,571.54,856.14,574.71,855.84,577.89z"/><path fill="#312824" d="M846.89,593.57v-1.86c1.53-1.38,3.43-3.26,5.1-5.44c0.6-0.78,1.15-1.58,1.66-2.42      c0.02-0.02,0.04-0.04,0.04-0.07c0.28-0.45,0.52-0.89,0.74-1.34c0.09-0.17,0.17-0.32,0.22-0.47c0.41-0.86,0.73-1.75,0.93-2.62      c0.06-0.17,0.09-0.34,0.11-0.5c0.04-0.15,0.06-0.3,0.07-0.45c0.04-0.17,0.06-0.34,0.07-0.5c0.3-3.18-1.01-6.35-5.23-8.99      c0,0-11.17,3.72-18.62-9.31c0,0-9.31,16.75-40.95,5.58c0,0-6.46-10.35-5.92,6.14c0,0.26,0.02,0.5,0.04,0.76      c-3.87-4.9-15-21.09-2.49-32.04c12.32-10.78,29.73-16.46,35.37-18.11c0.06-0.02,0.09-0.02,0.15-0.04      c-1.86-2.79-2.94-6.16-2.94-9.77c0-9.77,7.91-17.68,17.68-17.68c9.77,0,17.68,7.91,17.68,17.68c0,5.58-2.59,10.57-6.65,13.81      c4.49,2.23,8.6,5.53,11.3,10.39C864.44,552.85,870.01,582.08,846.89,593.57z"/><path fill="#d79283" d="M846.89,591.7v46.1c0,4.11-1.68,7.81-4.35,10.51c-2.7,2.68-6.41,4.37-10.53,4.37      c-9.27,0-16.77-7.51-16.77-16.78v-5.3c15.64-7.37,19.32-18.82,20.2-23.82c2.78-3.43,5.65-7.65,8.65-12.73      C845.05,593.27,846,592.53,846.89,591.7z"/><path fill="#ce877c" d="M835.44,606.76c-0.87,5.01-4.56,16.46-20.2,23.83v-10.65C821.13,619.81,827.88,616.15,835.44,606.76z"/><polygon fill="#454545" points="834.79 1179.47 834.76 1179.48 832.95 1180.34 810.37 1190.82 806.11 1192.54 767.78 1182.22 749.36 1177.26 751.62 1170.48 754.75 1170.81 756.53 1171 771.99 1172.69 826.15 1178.55 832.95 1179.28 834.76 1179.47"/><polygon fill="#454545" points="934.61 1177.26 879.87 1192 879.86 1192 874.09 1189.77 859.09 1184.01 859.09 1184.03 853.29 1181.36 853.27 1181.36 849.18 1179.48 849.16 1179.47 853.27 1179.02 857.05 1178.61 857.07 1178.61 932.35 1170.48"/><polygon fill="#454545" points="941.39 1215.67 941.39 1230.76 842.03 1193.6 841.92 1193.65 749.36 1229.79 749.36 1215.67 806.11 1192.54 810.37 1190.82 832.95 1180.34 834.81 1179.48 834.76 1179.48 834.79 1179.47 840.38 1176.88 841.92 1175.88 843.11 1176.71 849.15 1179.47 849.16 1179.47 849.18 1179.48 853.27 1181.36 853.29 1181.36 859.09 1184.03 874.09 1189.77 879.86 1192 879.87 1192"/><polygon fill="#454545" points="853.27 987.13 853.27 1181.36 849.18 1179.48 849.16 1179.47 849.15 1179.47 843.11 1176.71 841.92 1175.88 840.38 1176.88 834.79 1179.47 834.76 1179.48 834.81 1179.48 832.95 1180.34 832.95 987.13"/><path fill="#454545" d="M1026.69,732.15l-75.17,247.49c-1.68,5.53-6.78,9.3-12.56,9.3H729.61c-13.58,0-24.58-11-24.58-24.56     c0-5.34,1.7-10.27,4.59-14.31c0.1-0.14,0.19-0.27,0.3-0.41c4.46-5.95,11.56-9.83,19.59-9.86l5.51-0.02l5.11-0.02h0.03l9.26-0.05     l134.21-0.52l15.4-0.06c6.15-0.03,11.54-4.05,13.35-9.92l19.8-64.77l4.37-14.29l40.68-133.05c3.38-11.08,13.58-18.29,24.69-18.29     c2.02,0,4.06,0.24,6.1,0.73C1022.48,703.03,1031.01,717.94,1026.69,732.15z"/><path d="M936.56,850.14l-4.37,14.29h-97.53c-42.65,0-78.12,31.22-84.76,72.03v0.02c-0.19,1.08-0.35,2.16-0.48,3.24l-9.26,0.05      h-0.03l-5.11,0.02c5.29-50.32,47.97-89.64,99.64-89.64H936.56z"/><path fill="#b05441" d="M812.07,691.79c0,0,0.68,1,1.91,2.68l-31.92,39.87l-6.81,1.37l-0.43-13.15l-0.05-1.19     c0,0-4.06-67.87,34.62-86.81h0.02c1.84-0.91,3.8-1.7,5.84-2.37v3.7c0,9.27,7.49,16.78,16.77,16.78c4.11,0,7.83-1.68,10.53-4.37     c2.67-2.7,4.35-6.4,4.35-10.51v-9.11c3.94-1.3,21.99-6.73,35.73-2.64C867.74,627.92,843.84,641.18,812.07,691.79z"/><path fill="#d79283" d="M846.38,629.69l-0.53-1.5c0,0,0.28-0.1,0.8-0.26l0.47,1.52C846.64,629.59,846.38,629.68,846.38,629.69z"/><path fill="#9c453d" d="M898.83,652.45c-0.25,6.76-0.91,15.51-1.75,25.6v0.02l-46.91,54.65c-2.29-0.73-5-2.56-7.92-5.05     c-10.46-8.96-23.48-26.52-28.28-33.2c-1.22-1.68-1.91-2.68-1.91-2.68c31.77-50.61,55.67-63.86,70.55-65.74h0.02     C892.07,628.89,899.45,636.21,898.83,652.45z"/><path fill="#b05441" d="M897.08,678.07c-2.45,29.25-6.49,69.61-7.3,104.66c-0.02,0.54-0.02,1.06-0.03,1.59H776.88l-0.02-0.51     l-0.03-1.08l-0.29-8.65h15.51c2.41,0,4.75-0.97,6.45-2.67l43.75-43.73c2.92,2.49,5.64,4.32,7.92,5.05L897.08,678.07z"/><path fill="#b05441" d="M897.53,850.14h-1.92l-97.42-6.99h-0.02l-19.36-1.38l-0.94-27.96l-0.05-1.59l-0.95-27.91h112.87     c-0.21,9.89-0.14,19.31,0.3,27.91c0.03,0.54,0.06,1.06,0.1,1.59C891.05,829.6,893.27,842.51,897.53,850.14z"/><path fill="#9c453d" d="M774.77,721.37l0.05,1.19c-7.78-5.7-15.13-14.43-19.75-20.55c-3.13-4.08-5.03-6.99-5.03-6.99     c29.9-55.29,51.64-60.62,59.35-60.47C770.71,653.5,774.77,721.37,774.77,721.37z"/><path fill="#d79283" d="M775.25,735.71l-113.12,22.63l-4.11-10.08l80.27-21.61l16.78-24.63c4.62,6.11,11.97,14.85,19.75,20.55     L775.25,735.71z"/><path fill="#90b8dd" d="M798.18,843.16l-66.25,21.12c-4.24,1.35-8.54,2.46-12.91,3.3c-22.88,4.43-105.61,23.04-125.47,63.8     c-1.67,3.43-3.68,7.49-5.97,12.08c-0.19-0.38-0.35-0.76-0.52-1.14c-24.85-56.42,9.27-61.45,34.06-71.76     c31.22-12.97,157.71-28.79,157.71-28.79L798.18,843.16z"/><path fill="#90b8dd" d="M749.63,1104.08l-30.41,22.31c0,0-51.11-60.45-91.05-116.88c3.05-6.15,5.59-12.51,7.73-19.02     c3.46-10.4,16.02-41.54,42.36-40.86c17.24,0.44,26.64,0.29,31.65,0.03c-0.11,0.14-0.21,0.27-0.3,0.41l-30.38,10.26     c-5.94,2.02-8.54,8.96-5.37,14.37L749.63,1104.08z"/><path fill="#aed0e5" d="M895.61,850.14h-60.94c-51.67,0-94.35,39.32-99.64,89.64l-5.51,0.02c-8.03,0.03-15.13,3.91-19.59,9.86     c-5,0.25-14.4,0.41-31.65-0.03c-26.34-0.68-38.9,30.46-42.36,40.86c-2.14,6.51-4.68,12.88-7.73,19.02     c-0.25,0.52-0.52,1.05-0.79,1.57c-30.23,58.77-116.55,151.39-116.55,151.39l-23.61-13.89l-3.95-2.32     c0,0,75.01-144.08,104.31-202.79c2.29-4.59,4.3-8.65,5.97-12.08c19.86-40.76,102.59-59.37,125.47-63.8     c4.37-0.84,8.67-1.95,12.91-3.3l66.25-21.12h0.02L895.61,850.14z"/><path fill="#dd998e" d="M842.26,727.67l-43.75,43.73c-1.7,1.7-4.03,2.67-6.45,2.67H668.54l-6.41-15.74l113.12-22.63l6.81-1.37     l31.92-39.87C818.77,701.15,831.79,718.72,842.26,727.67z"/><path fill="#393738" d="M776.83,782.72H500.4l-2.56-5.72l-6.68-14.91l-46.68-104.24c-1.4-3.13,0.86-6.67,4.29-6.72l119.8-1.67     l17.09-0.24l18.18-0.24h0.02l6.32-0.1c3.18-0.03,6.13,1.33,8.16,3.62c0.78,0.89,1.43,1.91,1.89,3.03l37.79,92.7l4.11,10.08     l6.41,15.74h108.01L776.83,782.72z"/><rect width=".73" height="1.59" x="776.87" y="783.01" fill="#d79283"/><path fill="#aed0e5" d="M883.63,939.19l-134.21,0.52c0.13-1.08,0.29-2.16,0.48-3.24v-0.02c6.64-40.81,42.11-72.03,84.76-72.03h66.64     C905.21,883.81,907.83,918.5,883.63,939.19z"/><path fill="#f19c83" d="M510.83,1162.46c-5.22,3.57-6.54,14.62-6.84,21.36c-0.08,2.05-0.08,3.7-0.06,4.62      c-0.16-0.03-0.33-0.02-0.49,0.06c-9.48,4.48-52.62,13.34-52.62,13.34c0.1-1.24,4.24-3.91,6.89-5.48      c1.22-0.75,1.75-2.27,1.19-3.6l-2-4.87c-0.05-0.11-0.11-0.21-0.19-0.29c0.41-0.16,0.81-0.3,1.19-0.44      c2.81-1.05,5.22-2.95,6.91-5.45l2.7-4l19.72-29.14L510.83,1162.46z"/><path fill="#3b2527" d="M505.66,1211.57v5.1l-21.91,1.16v-1.92c0-0.49-0.43-0.89-0.92-0.84c-1.89,0.19-6.46,0.62-11.94,1.08      c-14.48,0.13-31.22,0-43.36-0.84c-6.26-1.41-11.37-3.3-9.97-5.3c0,0-2.19-6.86,8.5-7.34c8.45-0.38,17.93-8.42,25.23-12.99      c1.56-0.97,3.02-1.78,4.35-2.33c0.38-0.16,0.81-0.05,1.08,0.25c0.08,0.08,0.14,0.17,0.19,0.29l2,4.87      c0.56,1.33,0.03,2.86-1.19,3.6c-2.65,1.57-6.8,4.24-6.89,5.48c0,0,43.14-8.86,52.62-13.34c0.16-0.08,0.33-0.1,0.49-0.06      c0.22,0.05,0.43,0.19,0.54,0.41C505.71,1191.33,509.52,1200.33,505.66,1211.57z"/><path fill="#f19c83" d="M743.48,1102.86c1.22,6.21,10.86,11.78,16.93,14.71c1.85,0.88,3.37,1.53,4.22,1.88      c-0.09,0.13-0.15,0.3-0.14,0.48c0.38,10.48-8.48,53.62-8.48,53.62c-1.1-0.58-1.92-5.44-2.32-8.49c-0.2-1.42-1.4-2.5-2.84-2.52      l-5.27-0.08c-0.12,0-0.23,0.02-0.34,0.06c0.02-0.44,0.04-0.86,0.06-1.27c0.14-3-0.66-5.97-2.28-8.49l-2.61-4.06l-19.01-29.61      L743.48,1102.86z"/><path fill="#3b2527" d="M786.58,1126.97l4.68,2.01l-7.57,20.6l-1.77-0.76c-0.45-0.19-0.99,0.04-1.14,0.51      c-0.57,1.81-1.98,6.18-3.71,11.4c-5.59,13.36-12.3,28.69-17.86,39.52c-3.76,5.19-7.52,9.15-8.8,7.07c0,0-7.17-0.69-3.39-10.7      c2.98-7.91-0.67-19.79-1.99-28.31c-0.28-1.81-0.45-3.47-0.43-4.92c0-0.41,0.28-0.76,0.66-0.89c0.1-0.04,0.22-0.06,0.34-0.06      l5.27,0.08c1.44,0.01,2.64,1.1,2.84,2.52c0.4,3.06,1.22,7.92,2.32,8.49c0,0,8.86-43.14,8.48-53.62      c-0.01-0.18,0.04-0.34,0.14-0.48c0.13-0.19,0.34-0.32,0.59-0.33C767.99,1118.95,777.77,1119,786.58,1126.97z"/><polygon fill="#ff5568" points="819.12 812.23 303.06 812.23 303.06 782.72 818.22 782.72 818.25 783.8 818.26 784.31"/><polygon fill="#ff5568" points="1258.36 782.72 1258.36 812.23 819 812.23 818.16 784.31 818.15 783.8 818.12 782.72"/><polygon fill="#ff5568" points="1287.15 1228.23 1275.34 1228.23 1177.13 812.23 1200.49 812.23"/><polygon fill="#ff5568" points="1175.03 1183.98 1163.23 1183.98 1075.46 812.23 1097.58 812.23"/><polygon fill="#ff5568" points="385.92 812.23 287.71 1228.23 275.89 1228.23 362.56 812.23"/><polygon fill="#ff5568" points="487.59 812.23 399.81 1183.98 388.01 1183.98 465.47 812.23"/><path fill="#5a8cd3" d="M1091.83,732.76c0,0.02,0,0.04,0,0.05c0,0,0,0,0,0c0.01,0.06,0.03,0.11,0.07,0.16      c0.24,0.34,1.04,0.66,2.25,0.91c7.45-1.74,14.88-0.5,17.05-0.06c0,0,0,0,0,0c0.18-0.04,0.36-0.09,0.52-0.13      c0.1-0.03,0.2-0.06,0.29-0.09c0.3-0.1,0.55-0.2,0.75-0.3c0.06-0.03,0.11-0.06,0.15-0.09c0.08-0.05,0.15-0.11,0.2-0.16      c0,0,0,0,0,0c0-0.01,0.01-0.01,0.01-0.01c0.08-0.09,0.13-0.19,0.13-0.28c0-1.01-4.8-1.82-10.72-1.82      C1096.63,730.93,1091.83,731.75,1091.83,732.76z"/><path fill="#4572c8" d="M1094.16,733.89c1.96,0.42,4.99,0.69,8.39,0.69c3.56,0,6.71-0.29,8.66-0.75      C1109.04,733.39,1101.61,732.15,1094.16,733.89z"/><path fill="#1e7141" d="M1099.92,739.48c0,0,7.5-11.76,7.09-21.69s1.82-17.43,4.66-21.28c2.84-3.85,3.65-12.57,3.24-13.78        c0,0-4.46,10.74-10.95,13.58C1097.48,699.14,1104.17,730.97,1099.92,739.48z"/><path fill="#1e7141" d="M1099.92,736.03c0,0-3.85-40.74-31.83-47.23c0,0,26.76,31.22,28.99,49.46L1099.92,736.03z"/><path fill="#1e7141" d="M1102.35,737.05c0,0,18.71-33.61,32.79-39.11c0.43-0.17,0.84,0.3,0.6,0.7        C1132.1,704.7,1114.31,733.42,1102.35,737.05z"/><path fill="#472426" d="M1097.62,736.05l1.35-0.84c-0.43-0.69-10.66-16.82-23.03-18.04c-4.9-0.5-9.43,1.45-13.49,5.76l1.16,1.09        c3.7-3.93,7.79-5.7,12.18-5.27C1087.38,719.89,1097.52,735.89,1097.62,736.05z"/><path fill="#472426" d="M1099.12,736.04l1.59-0.02c-0.02-1.51-0.49-37.05-8.02-49.66l-1.36,0.81        C1098.63,699.42,1099.12,735.68,1099.12,736.04z"/><path fill="#472426" d="M1103.29,736.52c4.25-11.03,16.63-40.31,22.72-43.36l-0.71-1.42c-7.89,3.94-22.86,42.57-23.49,44.21        L1103.29,736.52z"/><path fill="#b34042" d="M1084.92,665.29c0,0,25.95,14.39,9.53,27.16C1094.44,692.45,1079.04,691.23,1084.92,665.29z"/><path fill="#b34042" d="M1138.74,674.04c0,0,1.18,25.34-16.99,22.54C1121.75,696.58,1115.21,685.97,1138.74,674.04z"/><path fill="#b34042" d="M1049.9,746.35c0,0-3.81-25.08,14.55-24.19C1064.45,722.16,1072.05,732.03,1049.9,746.35z"/><path fill="#b1d0f5" d="M1108.83,782.85c14.12-5.35,3.47-23.95,0.98-30.6c-1.9-5.07,1.07-13.66,2.61-17.51      c-1.15,0.39-9.75,3.08-15.75,0.07c0,0,5.97,12.18,1.55,21.08C1094.04,764.31,1086.44,782.37,1108.83,782.85z"/><path fill="#5081c2" d="M1097.71,783.33v1.01c0,0,2.2,0.79,4.81,0.91c0,0,0,0,0,0c2.61-0.13,4.82-0.91,4.82-0.91v-1.01      c-0.48,0.12-2.26,0.51-4.65,0.51c-0.06,0-0.11,0-0.17,0C1100.05,783.86,1098.21,783.45,1097.71,783.33z"/><path fill="#95bbf4" d="M1097.56,783.29c0.01,0,0.02,0.01,0.03,0.01c0,0,0.04,0.01,0.13,0.03c0.49,0.12,2.34,0.52,4.82,0.51      c0.05,0,0.11,0,0.17,0c2.39,0,4.17-0.39,4.65-0.51c0.08-0.02,0.13-0.03,0.13-0.03c0.01,0,0.02-0.01,0.03-0.01      c0.46-0.14,0.9-0.28,1.32-0.44c-22.39-0.48-14.79-18.54-10.61-26.96c4.42-8.9-1.55-21.08-1.55-21.08c6,3,14.6,0.31,15.75-0.07      c0.31-0.77,0.56-1.35,0.71-1.68c0,0,0-0.01,0-0.01c0,0,0,0,0,0c-0.05,0.05-0.12,0.11-0.2,0.16c-0.05,0.03-0.1,0.06-0.15,0.09      c-0.2,0.11-0.45,0.21-0.75,0.3c-0.09,0.03-0.19,0.06-0.29,0.09c-0.16,0.05-0.34,0.09-0.52,0.13c0,0,0,0,0,0      c-1.95,0.45-5.1,0.75-8.66,0.75c-3.4,0-6.43-0.27-8.39-0.69c-1.2-0.25-2-0.57-2.25-0.91c0.73,1.63,5.67,13.07,3.34,19.28      C1092.69,759.1,1081.48,778.62,1097.56,783.29z"/><g><polygon fill="#454545" points="568.57 649.47 491.16 762.1 497.85 777.01 530.98 728.78 547.34 704.98 585.65 649.23"/></g><g><path fill="#454545" d="M618.33,652.52l-89.51,130.21h-16.9l32.14-46.76l14.66-21.33l45.11-65.64h0.02l6.32-0.1     C613.35,648.87,616.3,650.23,618.33,652.52z"/></g><g><circle cx="544.14" cy="720.31" r="15.66" fill="#393738"/></g><g><path d="M916.21,421.54v31.21h271.87v-31.21H916.21z M1174.62,440.92H930.74v-7.01h243.89V440.92z"/><rect width="243.89" height="7.01" x="930.74" y="433.91" fill="#f5b900"/><path fill="#ff7387" d="M1188.08,289.63v131.91H916.21V289.63c0-12.49,10.11-22.6,22.6-22.6h226.67      C1177.97,267.03,1188.08,277.14,1188.08,289.63z"/><rect width="243.89" height="7.01" x="930.74" y="433.91" fill="#fff"/><rect width=".53" height="2.01" x="1188.08" y="420.54" fill="#ddd7dc"/><circle cx="1053.66" cy="351.93" r="37.76" transform="rotate(-80.781 1053.668 351.909)"/><polygon fill="#ddd7dc" points="1040.09 332.02 1040.09 371.83 1073.49 351.45"/></g><g><path fill="#a6c1e8" d="M360.59,602.47v29.76c0,6.23,5.09,11.34,11.34,11.34h44.67c8.47,10.87,23.01,12.64,23.99,12.73      c-4.29-1.33-9.37-7.84-12.67-12.73h0.32c6.23,0,11.34-5.11,11.34-11.34v-29.76c0-6.25-5.11-11.34-11.34-11.34h-56.32      C365.68,591.13,360.59,596.22,360.59,602.47z"/><path fill="#f2ecdd" d="M389.38,616.56c0,2.99-2.43,5.42-5.42,5.42c-2.99,0-5.42-2.43-5.42-5.42c0-2.99,2.43-5.42,5.42-5.42         C386.96,611.15,389.38,613.57,389.38,616.56z"/><path fill="#f2ecdd" d="M400.42,611.15c2.99,0,5.42,2.43,5.42,5.42c0,2.99-2.43,5.42-5.42,5.42c-2.99,0-5.42-2.43-5.42-5.42         C395,613.57,397.43,611.15,400.42,611.15z"/><circle cx="416.88" cy="616.56" r="5.42" fill="#f2ecdd"/></g><g><path fill="#a6c1e8" d="M754.82,426.91v-14.54h-8.81c-0.8-4.71-2.51-9.11-4.95-13.02l6.22-6.22L737,382.85l-5.97,5.97       c-3.84-2.68-8.23-4.63-12.97-5.64v-8.6h-14.54v8.45c-4.73,0.92-9.13,2.76-13.01,5.32l-6.23-6.23L674,392.41l6.25,6.24       c-2.49,3.79-4.29,8.08-5.21,12.69h-9.31v14.54h9.37c0.93,4.46,2.69,8.62,5.1,12.31l-6.93,6.93l10.28,10.28l6.88-6.88       c3.61,2.41,7.68,4.18,12.05,5.16v9.99h14.54v-9.72c4.44-0.82,8.6-2.46,12.31-4.74l6.92,6.92l10.28-10.28l-6.61-6.61       c2.59-3.66,4.51-7.83,5.59-12.33H754.82z M710.28,438.58c-10.75,0-19.46-8.71-19.46-19.46c0-10.74,8.71-19.45,19.46-19.45       c10.74,0,19.45,8.71,19.45,19.45C729.73,429.87,721.02,438.58,710.28,438.58z"/><path fill="#a6c1e8" d="M780.6,342.62v-9.61h-5.82c-0.53-3.11-1.66-6.02-3.27-8.6l4.11-4.11l-6.79-6.79l-3.94,3.94       c-2.54-1.77-5.44-3.06-8.57-3.73v-5.68h-9.61v5.58c-3.13,0.6-6.03,1.82-8.59,3.52l-4.12-4.12l-6.79,6.79l4.13,4.13       c-1.65,2.51-2.83,5.34-3.44,8.38h-6.15v9.61h6.19c0.61,2.95,1.77,5.69,3.37,8.13l-4.58,4.58l6.79,6.79l4.55-4.55       c2.39,1.59,5.07,2.76,7.96,3.41v6.6h9.61v-6.42c2.94-0.54,5.68-1.62,8.13-3.13l4.57,4.57l6.79-6.79l-4.37-4.37       c1.71-2.42,2.98-5.17,3.69-8.14H780.6z M751.17,350.33c-7.1,0-12.85-5.75-12.85-12.85c0-7.1,5.75-12.85,12.85-12.85       c7.1,0,12.85,5.75,12.85,12.85C764.02,344.57,758.27,350.33,751.17,350.33z"/></g><g><path fill="#fff" d="M569.89,506.17H171.97c-2.15,0-3.9-1.75-3.9-3.9v-265.6c0-2.15,1.75-3.9,3.9-3.9h397.92      c2.15,0,3.9,1.75,3.9,3.9v265.6C573.79,504.43,572.04,506.17,569.89,506.17z"/><rect width="405.69" height="2.82" x="168.09" y="257.65" fill="#e8cad3"/><rect width="180.51" height="2.82" x="337.2" y="312.86" fill="#e8cad3"/><rect width="180.51" height="2.82" x="337.2" y="326.88" fill="#e8cad3"/><rect width="180.51" height="2.82" x="337.2" y="340.9" fill="#e8cad3"/><rect width="180.51" height="2.82" x="337.2" y="354.92" fill="#e8cad3"/><rect width="114.79" height="2.82" x="337.2" y="368.94" fill="#e8cad3"/><path fill="#e8cad3" d="M302.28,394.01h-87.03c-4.76,0-8.63-3.86-8.63-8.63v-90.53c0-4.76,3.86-8.63,8.63-8.63h87.03      c4.76,0,8.63,3.86,8.63,8.63v90.53C310.91,390.15,307.05,394.01,302.28,394.01z"/><path fill="#e8cad3" d="M249.23,479.89h-33.62c-4.76,0-8.62-3.86-8.62-8.63v-35.33c0-4.76,3.86-8.63,8.62-8.63h33.62      c4.76,0,8.63,3.86,8.63,8.63v35.33C257.86,476.02,253.99,479.89,249.23,479.89z"/><path fill="#e8cad3" d="M343.51,479.89h-33.62c-4.76,0-8.63-3.86-8.63-8.63v-35.33c0-4.76,3.86-8.63,8.63-8.63h33.62      c4.76,0,8.63,3.86,8.63,8.63v35.33C352.14,476.02,348.27,479.89,343.51,479.89z"/><path fill="#e8cad3" d="M434.64,479.89h-33.62c-4.76,0-8.63-3.86-8.63-8.63v-35.33c0-4.76,3.86-8.63,8.63-8.63h33.62      c4.76,0,8.63,3.86,8.63,8.63v35.33C443.27,476.02,439.4,479.89,434.64,479.89z"/><path fill="#e8cad3" d="M525.77,479.89h-33.62c-4.76,0-8.63-3.86-8.63-8.63v-35.33c0-4.76,3.86-8.63,8.63-8.63h33.62      c4.76,0,8.63,3.86,8.63,8.63v35.33C534.4,476.02,530.54,479.89,525.77,479.89z"/></g><g><path fill="#a6c1e8" d="M1112.63,573.75l-19.59,6.82l19.59,6.72v5.69l-25.07-9.33v-6.2l25.07-9.28V573.75z"/><path fill="#a6c1e8" d="M1129.55,555.86l-10.56,37.32h-3.44l10.56-37.32H1129.55z"/><path fill="#a6c1e8" d="M1131.76,587.39l19.59-6.82l-19.59-6.72v-5.69l25.07,9.33v6.21l-25.07,9.28V587.39z"/></g><g><path fill="#a6c1e8" d="M215.35,663.17h-2.19c-1.83,0-2.72,1.06-2.66,3.37v11.54c0,4.26-1.54,5.98-5.74,6.45     c4.2,0.53,5.74,2.25,5.74,6.51v11.54c-0.06,2.72,0.65,3.85,2.66,3.85h2.19v5.86h-4.5c-4.2,0.06-7.4-3.55-7.28-8.29v-12.42     c0.06-3.37-1.06-4.38-4.79-4.32v-5.44h0.24h0.71c2.66,0,3.91-1.24,3.85-3.73v-12.49c-0.06-4.73,3.08-8.34,7.28-8.28h4.5V663.17z"/><path fill="#a6c1e8" d="M223.86,706.42h2.19c1.83,0,2.72-1.07,2.66-3.37v-11.54c0-4.26,1.54-5.98,5.74-6.45     c-4.2-0.53-5.74-2.25-5.74-6.51v-11.54c0.06-2.72-0.65-3.85-2.66-3.85h-2.19v-5.86h4.5c4.2-0.06,7.4,3.55,7.28,8.28v12.43     c-0.06,3.37,1.06,4.38,4.79,4.32v5.44h-0.24h-0.71c-2.66,0-3.91,1.24-3.85,3.73v12.48c0.06,4.74-3.08,8.34-7.28,8.29h-4.5V706.42     z"/></g><g><path fill="#e8cad3" d="M255.7,900.51l-16.52-13.82l-8.37,10c-6.11-3.57-12.74-5.81-19.49-6.75l-1.16-12.97l-21.45,1.9l1.11,12.45     c-6.69,1.82-13.08,4.95-18.73,9.37l-9.76-8.17l-13.82,16.52l9.6,8.03c-3.46,6.25-5.55,12.99-6.31,19.83l-13,1.16l1.91,21.46     l13.03-1.16c1.94,6.44,5.1,12.55,9.46,17.98l-8.84,10.57l16.52,13.82l8.9-10.64c5.95,3.19,12.34,5.14,18.83,5.9l1.28,14.45     l21.45-1.91l-1.28-14.36c6.17-1.81,12.05-4.75,17.32-8.78l11.35,9.49l13.82-16.52l-11.04-9.24c3.29-5.83,5.39-12.1,6.31-18.49     l14.44-1.29l-1.91-21.44l-13.79,1.23c-1.69-6.42-4.6-12.57-8.69-18.06L255.7,900.51z M226.63,962.19     c-10.21,12.21-28.38,13.82-40.59,3.61c-12.2-10.21-13.82-28.38-3.6-40.59c10.21-12.2,28.38-13.82,40.58-3.61     C235.22,931.82,236.84,949.99,226.63,962.19z"/></g><g><text fill="#a6c1e8" font-family="NimbusSanL-Bol" font-size="40.92" transform="matrix(1.1315 0 0 1 1241.209 472.623)">&lt;p1/&gt;</text></g></svg>